<svg xmlns="http://www.w3.org/2000/svg" width="100" height="100" viewBox="0 0 100 100">
  <circle cx="50" cy="50" r="48" fill="#0052FF"/>
  <path d="M36 26 H55 C68 26 68 42 68 42 C68 50 60 52 60 52 C70 54 72 64 72 68 C72 80 62 84 55 84 H36 V26 Z" fill="none" stroke="white" stroke-width="5"/>
  <path d="M48 46 C52 46 54 43 54 40 V36 C54 32 48 32 48 32 V46 Z" fill="white"/>
  <path d="M48 78 C56 78 58 70 58 70 V65 C58 58 48 58 48 58 V78 Z" fill="white"/>
  <path d="M60 52 L80 52" stroke="white" stroke-width="5" stroke-linecap="round"/>
  <path d="M70 40 L80 52 L70 64" stroke="white" stroke-width="2"/>
</svg> 